<svg width="24" height="24" viewBox="0 0 24 24" fill="none" xmlns="http://www.w3.org/2000/svg">
<path d="M11.9997 22C11.846 22 11.7026 21.9592 11.5693 21.8877L10.2063 21.0813C10.0013 20.969 10.1038 20.9282 10.1653 20.9078C10.442 20.8159 10.4932 20.7954 10.7802 20.6322C10.811 20.6117 10.852 20.622 10.8827 20.6424L11.9281 21.265C11.969 21.2854 12.0203 21.2854 12.051 21.265L16.1401 18.907C16.1811 18.8866 16.2017 18.8458 16.2017 18.7948V14.089C16.2017 14.0379 16.1811 13.9972 16.1401 13.9767L12.051 11.6289C12.01 11.6085 11.9587 11.6085 11.9281 11.6289L7.83891 13.9767C7.79794 13.9971 7.77737 14.0481 7.77737 14.089V18.7947C7.77737 18.8356 7.79794 18.8866 7.83891 18.907L8.95601 19.5501C9.56067 19.8563 9.93984 19.4991 9.93984 19.1418V14.4973C9.93984 14.4361 9.99109 14.3748 10.0628 14.3748H10.5855C10.647 14.3748 10.7085 14.4258 10.7085 14.4973V19.1418C10.7085 19.9482 10.2678 20.4178 9.49913 20.4178C9.26344 20.4178 9.079 20.4178 8.55627 20.1625L7.48022 19.5501C7.21376 19.3971 7.0498 19.1112 7.0498 18.8049V14.0992C7.0498 13.793 7.21376 13.5071 7.48022 13.354L11.5693 10.996C11.8256 10.8531 12.174 10.8531 12.4302 10.996L16.5193 13.354C16.7858 13.5071 16.9498 13.793 16.9498 14.0992V18.8049C16.9498 19.1112 16.7858 19.3971 16.5193 19.5501L12.4302 21.9081C12.2969 21.9694 12.1433 22 11.9998 22H11.9997ZM13.2603 18.7641C11.4669 18.7641 11.0979 17.9475 11.0979 17.2534C11.0979 17.1921 11.1492 17.1309 11.2209 17.1309H11.7538C11.8153 17.1309 11.8665 17.1717 11.8665 17.233C11.9486 17.774 12.1842 18.0394 13.2706 18.0394C14.1314 18.0394 14.5005 17.8454 14.5005 17.3861C14.5005 17.1207 14.3979 16.9268 13.0554 16.7941C11.9383 16.6817 11.2414 16.4368 11.2414 15.5487C11.2414 14.7219 11.9384 14.2319 13.1066 14.2319C14.4184 14.2319 15.0641 14.6811 15.1461 15.6609C15.1461 15.6916 15.1358 15.7222 15.1153 15.7528C15.0948 15.7732 15.0641 15.7936 15.0333 15.7936H14.5004C14.4491 15.7936 14.3979 15.7528 14.3877 15.7018C14.2647 15.1404 13.947 14.9566 13.1066 14.9566C12.1638 14.9566 12.051 15.2833 12.051 15.5282C12.051 15.8243 12.1842 15.9161 13.455 16.0794C14.7156 16.2428 15.3101 16.4776 15.3101 17.3554C15.2998 18.2537 14.5619 18.7641 13.2603 18.7641Z" fill="#539E43"/>
<path d="M5.72423 6.72685C5.72423 6.63295 5.67449 6.54421 5.59494 6.49726L3.48644 5.22427C3.45159 5.20337 3.41183 5.19295 3.37208 5.18771H3.35216C3.3124 5.18771 3.2726 5.20337 3.23779 5.22427L1.1293 6.49726C1.0497 6.54421 1 6.63291 1 6.72685L1.00499 10.1493C1.00499 10.1963 1.02986 10.2432 1.06962 10.2641C1.10942 10.2902 1.15911 10.2902 1.19397 10.2641L2.44713 9.51283C2.52668 9.46589 2.57642 9.37718 2.57642 9.28329V7.68159C2.57642 7.58769 2.62612 7.49899 2.70572 7.45204L3.23779 7.12856C3.27759 7.10247 3.32234 7.092 3.36709 7.092C3.41183 7.092 3.45658 7.10247 3.49143 7.12856L4.02351 7.45204C4.10311 7.49899 4.1528 7.58765 4.1528 7.68159V9.28329C4.1528 9.37718 4.20254 9.46589 4.2821 9.51283L5.53526 10.2641C5.57506 10.2902 5.62476 10.2902 5.66456 10.2641C5.70436 10.2432 5.72923 10.1963 5.72923 10.1493L5.72423 6.72685ZM15.8589 2.01568C15.8192 1.99477 15.7694 1.99477 15.7346 2.01568C15.6948 2.04177 15.67 2.08348 15.67 2.13042V5.52166C15.67 5.55295 15.6551 5.58423 15.6252 5.60513C15.5954 5.62075 15.5655 5.62075 15.5357 5.60513L15.0086 5.28688C14.97 5.2638 14.9262 5.25166 14.8818 5.25166C14.8373 5.25166 14.7936 5.2638 14.755 5.28688L12.6465 6.56511C12.5669 6.61205 12.5172 6.70076 12.5172 6.79465V9.34585C12.5172 9.43975 12.5669 9.5285 12.6465 9.57544L14.755 10.8537C14.7936 10.8767 14.8373 10.8889 14.8818 10.8889C14.9262 10.8889 14.97 10.8767 15.0086 10.8537L17.1171 9.57544C17.1966 9.5285 17.2464 9.43979 17.2464 9.34585V2.98608C17.2464 2.88695 17.1966 2.79829 17.1171 2.7513L15.859 2.01568H15.8589ZM15.665 8.50591C15.665 8.532 15.6551 8.55286 15.6352 8.56328L14.9141 9.00152C14.904 9.00667 14.893 9.00935 14.8818 9.00935C14.8706 9.00935 14.8595 9.00667 14.8494 9.00152L14.1284 8.56328C14.1085 8.55286 14.0985 8.52677 14.0985 8.50591V7.6294C14.0985 7.60331 14.1085 7.58246 14.1284 7.57203L14.8494 7.13375C14.8595 7.1286 14.8706 7.12592 14.8818 7.12592C14.893 7.12592 14.904 7.1286 14.9141 7.13375L15.6352 7.57203C15.6551 7.58241 15.665 7.60855 15.665 7.6294V8.50591ZM22.8757 7.60855C22.9553 7.5616 23 7.4729 23 7.37896V6.75813C23 6.66424 22.9503 6.57553 22.8757 6.52859L20.7821 5.2556C20.7434 5.23252 20.6998 5.22039 20.6553 5.22039C20.6108 5.22039 20.5671 5.23252 20.5285 5.2556L18.42 6.53378C18.3404 6.58072 18.2907 6.66943 18.2907 6.76337V9.31457C18.2907 9.40847 18.3404 9.49717 18.42 9.54411L20.5136 10.7962C20.5932 10.8432 20.6876 10.8432 20.7622 10.7962L22.0303 10.0555C22.0701 10.0346 22.0949 9.98763 22.0949 9.94068C22.0949 9.89373 22.0701 9.84679 22.0303 9.82589L19.9118 8.54767C19.8721 8.52162 19.8472 8.47986 19.8472 8.43292V7.63468C19.8472 7.58774 19.8721 7.54079 19.9118 7.51989L20.5732 7.12337C20.5926 7.11059 20.615 7.1038 20.6379 7.1038C20.6608 7.1038 20.6832 7.11059 20.7025 7.12337L21.3639 7.51989C21.4037 7.54598 21.4286 7.58769 21.4286 7.63468V8.26075C21.4286 8.30769 21.4534 8.35464 21.4932 8.3755C21.533 8.40159 21.5827 8.40159 21.6225 8.3755L22.8757 7.60855Z" fill="#333333"/>
<path d="M20.623 7.48853C20.6304 7.48343 20.639 7.48071 20.6479 7.48071C20.6567 7.48071 20.6653 7.48343 20.6727 7.48853L21.0755 7.73373C21.0905 7.74412 21.1004 7.75978 21.1004 7.78068V8.2711C21.1004 8.29195 21.0905 8.30762 21.0755 8.31804L20.6727 8.56325C20.6653 8.56835 20.6567 8.57106 20.6479 8.57106C20.639 8.57106 20.6304 8.56835 20.623 8.56325L20.2202 8.31804C20.2053 8.30762 20.1953 8.29195 20.1953 8.2711V7.78068C20.1953 7.75978 20.2053 7.74412 20.2202 7.73373L20.623 7.48853Z" fill="#539E43"/>
<mask id="mask0_96_507" style="mask-type:alpha" maskUnits="userSpaceOnUse" x="6" y="5" width="6" height="6">
<path d="M9.25032 5.26605C9.21168 5.24297 9.16798 5.23083 9.12352 5.23083C9.07906 5.23083 9.03536 5.24297 8.99672 5.26605L6.90316 6.53375C6.82356 6.5807 6.77881 6.6694 6.77881 6.76329V9.30412C6.77881 9.39801 6.82855 9.48672 6.90316 9.53366L8.99672 10.8015C9.03536 10.8245 9.07906 10.8367 9.12352 10.8367C9.16798 10.8367 9.21168 10.8245 9.25032 10.8015L11.3439 9.53366C11.4235 9.48672 11.4683 9.39801 11.4683 9.30412V6.76334C11.4683 6.66945 11.4185 6.58074 11.3439 6.5338L9.25032 5.26605Z" fill="white"/>
</mask>
<g mask="url(#mask0_96_507)">
<path d="M9.25032 5.26605C9.21168 5.24297 9.16798 5.23083 9.12352 5.23083C9.07906 5.23083 9.03536 5.24297 8.99672 5.26605L6.90316 6.53375C6.82356 6.5807 6.77881 6.6694 6.77881 6.76329V9.30412C6.77881 9.39801 6.82855 9.48672 6.90316 9.53366L8.99672 10.8015C9.03536 10.8245 9.07906 10.8367 9.12352 10.8367C9.16798 10.8367 9.21168 10.8245 9.25032 10.8015L11.3439 9.53366C11.4235 9.48672 11.4683 9.39801 11.4683 9.30412V6.76334C11.4683 6.66945 11.4185 6.58074 11.3439 6.5338L9.25032 5.26605Z" fill="url(#paint0_linear_96_507)"/>
<path d="M11.3481 6.53353L9.24457 5.26578C9.2239 5.25483 9.20224 5.24609 9.1799 5.23969L6.82275 9.47611C6.84228 9.50112 6.86586 9.52232 6.89241 9.53872L8.99592 10.8065C9.0556 10.843 9.12521 10.8535 9.18984 10.8326L11.4028 6.58575C11.3879 6.5649 11.368 6.54919 11.3481 6.53357V6.53353Z" fill="url(#paint1_linear_96_507)"/>
<path fill-rule="evenodd" clip-rule="evenodd" d="M11.3541 9.53372C11.4137 9.4972 11.4585 9.43459 11.4784 9.36679L9.17093 5.23473C9.11125 5.2243 9.04658 5.22949 8.99193 5.26601L6.90332 6.52861L9.156 10.838C9.18876 10.8324 9.22058 10.8219 9.25048 10.8067L11.354 9.53376L11.3541 9.53372Z" fill="url(#paint2_linear_96_507)"/>
<path fill-rule="evenodd" clip-rule="evenodd" d="M11.3537 9.53374L9.25513 10.8015C9.22551 10.8174 9.19358 10.828 9.16064 10.8328L9.20044 10.9111L11.5277 9.49727V9.46594L11.468 9.36157C11.4581 9.43461 11.4134 9.49722 11.3537 9.53374Z" fill="url(#paint3_linear_96_507)"/>
<path fill-rule="evenodd" clip-rule="evenodd" d="M11.3537 9.53374L9.25513 10.8015C9.22551 10.8174 9.19358 10.828 9.16064 10.8328L9.20044 10.9111L11.5277 9.49727V9.46594L11.468 9.36157C11.4581 9.43461 11.4134 9.49722 11.3537 9.53374Z" fill="url(#paint4_linear_96_507)"/>
</g>
<defs>
<linearGradient id="paint0_linear_96_507" x1="9.97646" y1="6.21113" x2="7.52189" y2="9.88733" gradientUnits="userSpaceOnUse">
<stop stop-color="#41873F"/>
<stop offset="0.3288" stop-color="#418B3D"/>
<stop offset="0.6352" stop-color="#419637"/>
<stop offset="0.9319" stop-color="#3FA92D"/>
<stop offset="1" stop-color="#3FAE2A"/>
</linearGradient>
<linearGradient id="paint1_linear_96_507" x1="8.80486" y1="8.3311" x2="14.6743" y2="5.29156" gradientUnits="userSpaceOnUse">
<stop offset="0.1376" stop-color="#41873F"/>
<stop offset="0.4032" stop-color="#54A044"/>
<stop offset="0.7136" stop-color="#66B848"/>
<stop offset="0.9081" stop-color="#6CC04A"/>
</linearGradient>
<linearGradient id="paint2_linear_96_507" x1="6.70252" y1="8.03384" x2="11.547" y2="8.03384" gradientUnits="userSpaceOnUse">
<stop offset="0.09192" stop-color="#6CC04A"/>
<stop offset="0.2864" stop-color="#66B848"/>
<stop offset="0.5968" stop-color="#54A044"/>
<stop offset="0.8624" stop-color="#41873F"/>
</linearGradient>
<linearGradient id="paint3_linear_96_507" x1="6.70217" y1="10.1406" x2="11.5466" y2="10.1406" gradientUnits="userSpaceOnUse">
<stop offset="0.09192" stop-color="#6CC04A"/>
<stop offset="0.2864" stop-color="#66B848"/>
<stop offset="0.5968" stop-color="#54A044"/>
<stop offset="0.8624" stop-color="#41873F"/>
</linearGradient>
<linearGradient id="paint4_linear_96_507" x1="12.2524" y1="6.09101" x2="10.9063" y2="12.8142" gradientUnits="userSpaceOnUse">
<stop stop-color="#41873F"/>
<stop offset="0.3288" stop-color="#418B3D"/>
<stop offset="0.6352" stop-color="#419637"/>
<stop offset="0.9319" stop-color="#3FA92D"/>
<stop offset="1" stop-color="#3FAE2A"/>
</linearGradient>
</defs>
</svg>
