<svg width="24" height="24" viewBox="0 0 24 24" fill="none" xmlns="http://www.w3.org/2000/svg">
<path d="M23 12.0023C23 10.5145 21.1749 9.1046 18.3767 8.23026C19.0224 5.31884 18.7354 3.00252 17.4709 2.26093C17.1794 2.08698 16.8386 2.00458 16.4664 2.00458V3.02541C16.6726 3.02541 16.8386 3.06661 16.9776 3.14443C17.5874 3.50149 17.852 4.86107 17.6457 6.60975C17.5964 7.04005 17.5157 7.49325 17.417 7.9556C16.5381 7.73587 15.5785 7.56649 14.5695 7.45663C13.9641 6.60975 13.3363 5.8407 12.704 5.16777C14.1659 3.78073 15.5381 3.02083 16.4709 3.02083V2C15.2377 2 13.6233 2.89723 11.991 4.45365C10.3587 2.90639 8.74439 2.01831 7.51121 2.01831V3.03914C8.43946 3.03914 9.81614 3.79446 11.278 5.17235C10.6502 5.84527 10.0224 6.60975 9.42601 7.45663C8.41256 7.56649 7.45292 7.73587 6.57399 7.96017C6.47085 7.5024 6.39462 7.05837 6.34081 6.63264C6.13004 4.88395 6.39013 3.52438 6.99552 3.16274C7.13004 3.08034 7.30493 3.04372 7.51121 3.04372V2.02289C7.13453 2.02289 6.79372 2.10529 6.49776 2.27924C5.23767 3.02083 4.95516 5.33257 5.60538 8.23484C2.81614 9.11376 1 10.5191 1 12.0023C1 13.49 2.82511 14.9 5.62332 15.7743C4.97758 18.6857 5.26457 21.0021 6.52915 21.7436C6.82063 21.9176 7.16144 22 7.53812 22C8.7713 22 10.3857 21.1028 12.0179 19.5463C13.6502 21.0936 15.2646 21.9817 16.4978 21.9817C16.8744 21.9817 17.2152 21.8993 17.5112 21.7253C18.7713 20.9837 19.0538 18.672 18.4036 15.7697C21.1839 14.8954 23 13.4855 23 12.0023ZM17.1614 8.94896C16.9955 9.53948 16.7892 10.1483 16.5561 10.7572C16.3722 10.3909 16.1794 10.0247 15.9686 9.6585C15.7623 9.29229 15.5426 8.93523 15.3229 8.58732C15.9596 8.68345 16.574 8.80247 17.1614 8.94896ZM15.1076 13.8242C14.7578 14.4422 14.3991 15.0282 14.0269 15.5729C13.3587 15.6324 12.6816 15.6645 12 15.6645C11.3229 15.6645 10.6457 15.6324 9.98206 15.5775C9.60987 15.0327 9.24664 14.4514 8.89686 13.8379C8.55605 13.2383 8.24664 12.6294 7.96413 12.016C8.24215 11.4026 8.55606 10.7892 8.89238 10.1895C9.24215 9.57153 9.6009 8.98558 9.97309 8.44083C10.6413 8.38132 11.3184 8.34928 12 8.34928C12.6771 8.34928 13.3543 8.38132 14.0179 8.43626C14.3901 8.981 14.7534 9.56237 15.1031 10.1758C15.4439 10.7755 15.7534 11.3843 16.0359 11.9977C15.7534 12.6111 15.4439 13.2245 15.1076 13.8242ZM16.5561 13.2291C16.7982 13.8425 17.0045 14.4559 17.1749 15.051C16.5874 15.1975 15.9686 15.3211 15.3274 15.4173C15.5471 15.0648 15.7668 14.7031 15.9731 14.3323C16.1794 13.9661 16.3722 13.5953 16.5561 13.2291ZM12.009 18.1135C11.5919 17.6741 11.1749 17.1843 10.7623 16.6487C11.1659 16.667 11.5785 16.6807 11.9955 16.6807C12.417 16.6807 12.8341 16.6715 13.2422 16.6487C12.8386 17.1843 12.4215 17.6741 12.009 18.1135ZM8.67265 15.4173C8.03587 15.3211 7.42152 15.2021 6.83408 15.0556C7 14.4651 7.20628 13.8563 7.43946 13.2474C7.62332 13.6136 7.81614 13.9799 8.02691 14.3461C8.23767 14.7123 8.45291 15.0694 8.67265 15.4173ZM11.9865 5.89105C12.4036 6.33051 12.8206 6.82032 13.2332 7.35592C12.8296 7.33761 12.417 7.32387 12 7.32387C11.5785 7.32387 11.1614 7.33303 10.7534 7.35592C11.157 6.82032 11.574 6.33051 11.9865 5.89105ZM8.66816 8.58732C8.44843 8.9398 8.2287 9.30144 8.02242 9.67224C7.81614 10.0385 7.62332 10.4047 7.43946 10.7709C7.19731 10.1575 6.99103 9.54406 6.82063 8.94896C7.40807 8.80705 8.02691 8.68345 8.66816 8.58732ZM4.60987 14.3186C3.02242 13.6274 1.99552 12.721 1.99552 12.0023C1.99552 11.2836 3.02242 10.3726 4.60987 9.68597C4.99552 9.51659 5.41704 9.36553 5.85202 9.22362C6.10762 10.1209 6.44395 11.0547 6.86099 12.0114C6.44843 12.9636 6.11659 13.8929 5.86547 14.7855C5.42153 14.6436 5 14.488 4.60987 14.3186ZM7.02242 20.8601C6.41256 20.5031 6.14798 19.1435 6.35426 17.3948C6.40359 16.9645 6.48431 16.5113 6.58296 16.049C7.46188 16.2687 8.42153 16.4381 9.43049 16.548C10.0359 17.3948 10.6637 18.1639 11.296 18.8368C9.83408 20.2238 8.46188 20.9837 7.52915 20.9837C7.32735 20.9792 7.15695 20.938 7.02242 20.8601ZM17.6592 17.3719C17.87 19.1206 17.6099 20.4802 17.0045 20.8418C16.87 20.9242 16.6951 20.9609 16.4888 20.9609C15.5605 20.9609 14.1839 20.2055 12.722 18.8276C13.3498 18.1547 13.9776 17.3902 14.574 16.5434C15.5874 16.4335 16.5471 16.2641 17.426 16.0398C17.5291 16.5022 17.6099 16.9462 17.6592 17.3719ZM19.3857 14.3186C19 14.488 18.5785 14.639 18.1435 14.781C17.8879 13.8837 17.5516 12.9499 17.1345 11.9931C17.5471 11.041 17.8789 10.1117 18.13 9.21904C18.574 9.36095 18.9955 9.51659 19.3901 9.68597C20.9776 10.3772 22.0045 11.2836 22.0045 12.0023C22 12.721 20.9731 13.632 19.3857 14.3186Z" fill="#61DAFB"/>
<path d="M11.9956 14.0943C13.1274 14.0943 14.0449 13.1577 14.0449 12.0023C14.0449 10.8469 13.1274 9.91028 11.9956 9.91028C10.8638 9.91028 9.94629 10.8469 9.94629 12.0023C9.94629 13.1577 10.8638 14.0943 11.9956 14.0943Z" fill="#61DAFB"/>
</svg>
