<svg width="24" height="24" viewBox="0 0 24 24" fill="none" xmlns="http://www.w3.org/2000/svg">
<path fill-rule="evenodd" clip-rule="evenodd" d="M21.718 13.0923L21.3668 12.3879H21.3575C21.2281 12.1471 21.2281 11.8529 21.3575 11.6121L21.7088 10.9077C22.3652 9.61481 21.8382 8.04548 20.5163 7.37673L19.8044 7.01114C19.5548 6.8774 19.3792 6.64557 19.333 6.37807L19.1943 5.61124C18.9355 4.18458 17.5488 3.22159 16.0697 3.42667L15.2747 3.53366C14.9881 3.56933 14.7015 3.48016 14.4981 3.29291L13.925 2.749C12.8434 1.75033 11.1424 1.75033 10.0608 2.749L9.48766 3.29291C9.28428 3.48016 8.99771 3.56933 8.71113 3.53366L7.91611 3.42667C6.437 3.22159 5.05033 4.18458 4.80073 5.61124L4.65283 6.37807C4.6066 6.64557 4.43096 6.8774 4.18136 7.01114L3.46953 7.37673C2.15682 8.04548 1.62065 9.61481 2.28625 10.9077L2.63754 11.6121C2.76696 11.8529 2.76696 12.1471 2.63754 12.3879L2.28625 13.0923C1.62989 14.3852 2.15683 15.9545 3.47878 16.6233L4.19061 16.9889C4.44021 17.1226 4.61584 17.3544 4.66207 17.6219L4.80998 18.3888C5.05958 19.8065 6.44624 20.7784 7.92535 20.5733L8.72037 20.4663C9.00695 20.4307 9.29352 20.5198 9.4969 20.7071L10.0701 21.251C11.1517 22.2497 12.8526 22.2497 13.9342 21.251L14.5074 20.7071C14.7108 20.5198 14.9973 20.4307 15.2839 20.4663L16.0789 20.5733C17.5581 20.7784 18.9447 19.8065 19.2036 18.3888L19.3422 17.6219C19.3885 17.3544 19.5641 17.1226 19.8137 16.9889L20.5255 16.6233C21.8475 15.9545 22.3744 14.3852 21.718 13.0923ZM16.347 10.1587L11.2626 15.0629C11.0869 15.2323 10.8466 15.3215 10.6062 15.3215V15.3393C10.4029 15.3393 10.1995 15.2769 10.0331 15.1431L7.72198 13.3598C7.32447 13.0477 7.25975 12.4949 7.57406 12.1025C7.88837 11.7191 8.47077 11.6567 8.87752 11.9599L10.5415 13.2439L15.0436 8.90148C15.4041 8.55373 15.9865 8.55373 16.347 8.90148C16.7076 9.24923 16.7076 9.81097 16.347 10.1587Z" fill="url(#paint0_linear_13719_11010)"/>
<defs>
<linearGradient id="paint0_linear_13719_11010" x1="-0.459016" y1="2" x2="27.7583" y2="13.5091" gradientUnits="userSpaceOnUse">
<stop stop-color="#65B168"/>
<stop offset="1" stop-color="#FFD175"/>
</linearGradient>
</defs>
</svg>
