<svg width="28" height="27" viewBox="0 0 28 27" fill="none" xmlns="http://www.w3.org/2000/svg">
<path d="M13.8864 24C20.451 24 25.7727 18.6274 25.7727 12C25.7727 5.37258 20.451 0 13.8864 0C7.32171 0 2 5.37258 2 12C2 18.6274 7.32171 24 13.8864 24Z" fill="#414141"/>
<path d="M6.31037 12.0366C6.27454 13.2608 6.4879 14.485 6.88042 15.6719C7.23711 16.68 7.91465 17.5443 8.80719 18.156C9.84143 18.8043 11.0288 19.0561 12.2674 19.0561H19.8654V15.446H12.2552C10.3968 15.446 9.50428 14.1715 9.50428 12.0439V12.0464C9.50428 9.91883 10.3976 8.64913 12.2552 8.64913H19.8645V5.03906H12.2666C11.0654 5.03906 9.84143 5.29089 8.80638 5.93914C7.91466 6.55084 7.23711 7.41437 6.87961 8.4233C6.48708 9.61095 6.27372 10.8343 6.30955 12.0586" fill="url(#paint0_linear_2284_817)"/>
<path fill-rule="evenodd" clip-rule="evenodd" d="M10.9248 11.2988L14.4917 11.9869C14.4917 11.9869 11.8752 14.731 10.9248 11.2988Z" fill="white"/>
<path fill-rule="evenodd" clip-rule="evenodd" d="M19.2896 11.3105L15.8311 12.0343C15.8311 12.0343 18.8263 14.7492 19.2896 11.3105Z" fill="white"/>
<defs>
<linearGradient id="paint0_linear_2284_817" x1="6.3063" y1="12.048" x2="19.8646" y2="12.048" gradientUnits="userSpaceOnUse">
<stop stop-color="#F16222"/>
<stop offset="0.26" stop-color="#F37421"/>
<stop offset="0.71" stop-color="#F68D1E"/>
<stop offset="1" stop-color="#F7981D"/>
</linearGradient>
</defs>
</svg>
